<svg xmlns="http://www.w3.org/2000/svg"  viewBox="0 0 64 64" width="240px" height="240px"><path d="M 32 10 C 19.85 10 10 19.85 10 32 C 10 44.15 19.85 54 32 54 C 44.15 54 54 44.15 54 32 C 54 19.85 44.15 10 32 10 z M 32 14 C 41.941 14 50 22.059 50 32 C 50 41.019571 43.357999 48.468043 34.703125 49.775391 L 34.703125 38.316406 L 39.544922 38.316406 L 40.269531 32.544922 L 34.703125 32.544922 L 34.703125 28.503906 C 34.703125 26.902906 35.786547 26.080078 36.935547 26.080078 C 38.084547 26.080078 40.464844 26.046875 40.464844 26.046875 L 40.464844 20.882812 C 40.464844 20.882812 38.346594 20.638672 36.183594 20.638672 C 34.366594 20.638672 32.365672 21.150828 30.763672 22.798828 C 29.133672 24.474828 28.898438 26.949703 28.898438 29.970703 L 28.898438 32.544922 L 24.046875 32.544922 L 24.046875 38.316406 L 28.898438 38.316406 L 28.898438 49.714844 C 20.438669 48.242252 14 40.881048 14 32 C 14 22.059 22.059 14 32 14 z"/></svg>