<?xml version="1.0" standalone="no"?>
<!DOCTYPE svg PUBLIC "-//W3C//DTD SVG 20010904//EN"
 "http://www.w3.org/TR/2001/REC-SVG-20010904/DTD/svg10.dtd">
<svg version="1.0" xmlns="http://www.w3.org/2000/svg"
 width="50.000000pt" height="50.000000pt" viewBox="0 0 50.000000 50.000000"
 preserveAspectRatio="xMidYMid meet">

<g transform="translate(0.000000,50.000000) scale(0.100000,-0.100000)"
fill="#000000" stroke="none">
<path d="M392 477 c-22 -23 -22 -24 -4 -40 17 -16 20 -15 42 8 19 20 21 27 10
40 -17 20 -23 19 -48 -8z"/>
<path d="M235 390 l-90 -90 53 -52 52 -53 92 92 93 93 -50 50 c-27 27 -52 50
-55 50 -3 0 -46 -41 -95 -90z"/>
<path d="M146 230 c-20 -24 -26 -42 -26 -78 0 -40 -5 -51 -37 -84 -35 -36 -36
-39 -20 -56 17 -16 20 -15 63 30 39 42 44 52 44 94 0 34 6 54 20 69 20 21 20
22 1 39 -18 16 -20 15 -45 -14z"/>
</g>
</svg>
