<?xml version="1.0" standalone="no"?>
<!DOCTYPE svg PUBLIC "-//W3C//DTD SVG 20010904//EN"
 "http://www.w3.org/TR/2001/REC-SVG-20010904/DTD/svg10.dtd">
<svg version="1.0" xmlns="http://www.w3.org/2000/svg"
 width="636.000000pt" height="165.000000pt" viewBox="0 0 636.000000 165.000000"
 preserveAspectRatio="xMidYMid meet">

<g transform="translate(0.000000,165.000000) scale(0.100000,-0.100000)"
fill="#000000" stroke="none">
<path d="M3135 1238 c-138 -303 -285 -634 -285 -641 0 -4 62 -6 138 -5 l137 3
15 43 15 42 150 -2 150 -3 9 -42 9 -43 139 0 c128 0 139 1 134 18 -12 40 -186
674 -186 678 0 2 -90 4 -201 4 l-200 0 -24 -52z m224 -175 c23 -88 51 -202 51
-207 0 -3 -41 -6 -91 -6 -69 0 -90 3 -86 13 34 87 102 237 108 237 5 0 13 -17
18 -37z"/>
<path d="M3835 943 l-30 -348 220 -3 c253 -3 325 5 411 48 121 59 185 165 192
315 5 120 -18 185 -89 249 -82 74 -106 79 -409 84 l-266 4 -29 -349z m461 136
c47 -24 69 -64 69 -128 -1 -115 -68 -171 -207 -171 -65 0 -78 3 -78 16 0 30
21 259 26 283 5 23 7 24 84 18 43 -3 90 -11 106 -18z"/>
<path d="M4694 943 l-29 -348 354 -3 c195 -1 355 -1 356 0 2 2 6 45 10 96 l7
92 -226 0 -226 0 0 40 0 40 229 0 228 0 7 46 c3 26 6 62 6 80 l0 34 -225 0
-225 0 0 24 c0 58 -7 56 235 56 l224 0 5 43 c3 23 7 66 9 95 l4 52 -356 0
-357 0 -30 -347z"/>
<path d="M5511 1138 c-7 -84 -20 -242 -30 -350 l-17 -198 303 0 302 0 5 33 c3
17 7 60 10 95 l6 62 -175 0 c-160 0 -175 1 -175 18 0 9 9 116 20 237 11 121
20 228 20 238 0 15 -13 17 -128 17 l-129 0 -12 -152z"/>
<path d="M265 1226 c-134 -42 -202 -134 -212 -285 -13 -186 68 -315 219 -352
58 -13 194 -7 273 13 l50 13 3 173 2 172 -135 0 -135 0 0 -65 0 -65 55 0 55 0
0 -49 c0 -47 -1 -50 -31 -56 -113 -25 -187 61 -177 204 12 158 99 203 284 146
17 -5 24 2 46 59 14 36 23 68 18 71 -4 2 -34 11 -66 20 -70 18 -193 19 -249 1z"/>
<path d="M975 1086 c-17 -7 -43 -27 -57 -45 -15 -17 -29 -31 -31 -31 -2 0 -9
18 -16 40 l-12 40 -64 0 -65 0 0 -250 0 -250 85 0 85 0 0 135 c0 158 9 187 66
205 20 7 51 10 69 7 l32 -5 7 60 c11 108 11 108 -31 108 -21 -1 -52 -7 -68
-14z"/>
<path d="M2490 1091 c-74 -15 -136 -66 -164 -133 -19 -44 -21 -164 -5 -223 15
-56 92 -128 152 -143 132 -34 251 10 302 111 20 41 25 66 25 125 0 99 -16 148
-65 198 -59 61 -146 85 -245 65z m109 -140 c25 -25 35 -78 28 -148 -7 -66 -28
-93 -73 -93 -42 0 -65 32 -72 100 -9 97 20 160 73 160 14 0 34 -9 44 -19z"/>
<path d="M1152 886 c3 -223 5 -231 70 -279 56 -42 167 -32 228 20 l30 25 11
-31 c11 -30 12 -31 75 -31 l64 0 0 250 0 250 -85 0 -85 0 0 -147 c0 -180 -12
-216 -72 -221 -61 -5 -68 15 -68 205 l0 163 -86 0 -85 0 3 -204z"/>
<path d="M1750 735 l0 -355 85 0 85 0 0 131 0 131 30 -26 c43 -36 106 -43 162
-18 81 36 113 105 113 247 0 87 -4 106 -26 150 -37 73 -78 98 -156 93 -51 -3
-68 -9 -91 -31 -15 -15 -31 -27 -34 -27 -3 0 -11 14 -17 30 -10 30 -11 30 -80
30 l-71 0 0 -355z m286 200 c11 -16 16 -47 16 -95 0 -82 -18 -120 -57 -120
-54 0 -84 67 -71 158 3 25 14 54 23 64 24 26 69 23 89 -7z"/>
</g>
</svg>
